<mxfile host="65bd71144e">
    <diagram id="1matsxdOOPIFbDZS2X_D" name="第 1 页">
        <mxGraphModel dx="693" dy="487" grid="1" gridSize="5" guides="1" tooltips="1" connect="1" arrows="1" fold="1" page="1" pageScale="1" pageWidth="1169" pageHeight="827" math="0" shadow="0">
            <root>
                <mxCell id="0"/>
                <mxCell id="1" parent="0"/>
                <mxCell id="109" value="" style="group" parent="1" vertex="1" connectable="0">
                    <mxGeometry width="80" height="40" as="geometry"/>
                </mxCell>
                <mxCell id="110" value="" style="rounded=1;whiteSpace=wrap;html=1;" parent="109" vertex="1">
                    <mxGeometry width="80" height="40" as="geometry"/>
                </mxCell>
                <mxCell id="111" value="" style="group" parent="109" vertex="1" connectable="0">
                    <mxGeometry width="80" height="40" as="geometry"/>
                </mxCell>
                <mxCell id="112" value="→" style="text;html=1;strokeColor=none;fillColor=none;align=center;verticalAlign=middle;whiteSpace=wrap;rounded=0;" parent="111" vertex="1">
                    <mxGeometry y="20" width="80" height="20" as="geometry"/>
                </mxCell>
                <mxCell id="113" value="Sequence" style="text;html=1;strokeColor=none;fillColor=none;align=center;verticalAlign=middle;whiteSpace=wrap;rounded=0;" parent="111" vertex="1">
                    <mxGeometry width="80" height="20" as="geometry"/>
                </mxCell>
                <mxCell id="114" value="" style="group" parent="1" vertex="1" connectable="0">
                    <mxGeometry x="240" width="80" height="40" as="geometry"/>
                </mxCell>
                <mxCell id="115" value="" style="rounded=1;whiteSpace=wrap;html=1;" parent="114" vertex="1">
                    <mxGeometry width="80" height="40" as="geometry"/>
                </mxCell>
                <mxCell id="116" value="" style="group" parent="114" vertex="1" connectable="0">
                    <mxGeometry width="80" height="40" as="geometry"/>
                </mxCell>
                <mxCell id="117" value="⇉" style="text;html=1;strokeColor=none;fillColor=none;align=center;verticalAlign=middle;whiteSpace=wrap;rounded=0;" parent="116" vertex="1">
                    <mxGeometry y="20" width="80" height="20" as="geometry"/>
                </mxCell>
                <mxCell id="118" value="Parallel" style="text;html=1;strokeColor=none;fillColor=none;align=center;verticalAlign=middle;whiteSpace=wrap;rounded=0;" parent="116" vertex="1">
                    <mxGeometry width="80" height="20" as="geometry"/>
                </mxCell>
                <mxCell id="119" value="" style="group" parent="1" vertex="1" connectable="0">
                    <mxGeometry x="120" y="120" width="112" height="49" as="geometry"/>
                </mxCell>
                <mxCell id="120" value="&lt;font style=&quot;font-size: 10px&quot;&gt;ParaWrite&lt;br&gt;Node&lt;/font&gt;" style="rounded=1;whiteSpace=wrap;html=1;align=left;verticalAlign=middle;" parent="119" vertex="1">
                    <mxGeometry width="80" height="40" as="geometry"/>
                </mxCell>
                <mxCell id="121" value="" style="shape=step;perimeter=stepPerimeter;whiteSpace=wrap;html=1;fixedSize=1;fontSize=10;fillColor=default;size=9.999971088610266;" parent="119" vertex="1">
                    <mxGeometry x="32" y="24" width="80" height="25" as="geometry"/>
                </mxCell>
                <mxCell id="122" value="Paras" style="text;html=1;strokeColor=none;fillColor=none;align=center;verticalAlign=middle;whiteSpace=wrap;rounded=0;fontSize=10;" parent="119" vertex="1">
                    <mxGeometry x="32" y="24" width="80" height="25" as="geometry"/>
                </mxCell>
                <mxCell id="123" value="" style="group" parent="1" vertex="1" connectable="0">
                    <mxGeometry x="240" y="120" width="112" height="49" as="geometry"/>
                </mxCell>
                <mxCell id="124" value="&lt;font style=&quot;font-size: 10px&quot;&gt;ParaRead&lt;br&gt;Node&lt;/font&gt;" style="rounded=1;whiteSpace=wrap;html=1;align=left;verticalAlign=middle;" parent="123" vertex="1">
                    <mxGeometry width="80" height="40" as="geometry"/>
                </mxCell>
                <mxCell id="125" value="" style="shape=step;perimeter=stepPerimeter;whiteSpace=wrap;html=1;fixedSize=1;fontSize=10;fillColor=default;size=9.999971088610266;rotation=-180;" parent="123" vertex="1">
                    <mxGeometry x="32" y="24" width="80" height="25" as="geometry"/>
                </mxCell>
                <mxCell id="126" value="Paras" style="text;html=1;strokeColor=none;fillColor=none;align=center;verticalAlign=middle;whiteSpace=wrap;rounded=0;fontSize=10;" parent="123" vertex="1">
                    <mxGeometry x="32" y="24" width="80" height="25" as="geometry"/>
                </mxCell>
                <mxCell id="127" value="" style="group" parent="1" vertex="1" connectable="0">
                    <mxGeometry y="120" width="112" height="49" as="geometry"/>
                </mxCell>
                <mxCell id="128" value="&lt;font style=&quot;font-size: 10px&quot;&gt;NonReadWrite&lt;br&gt;Node&lt;/font&gt;" style="rounded=1;whiteSpace=wrap;html=1;align=left;verticalAlign=middle;" parent="127" vertex="1">
                    <mxGeometry width="80" height="40" as="geometry"/>
                </mxCell>
                <mxCell id="129" value="" style="group" parent="1" vertex="1" connectable="0">
                    <mxGeometry x="360" width="80" height="40" as="geometry"/>
                </mxCell>
                <mxCell id="130" value="" style="rounded=1;whiteSpace=wrap;html=1;" parent="129" vertex="1">
                    <mxGeometry width="80" height="40" as="geometry"/>
                </mxCell>
                <mxCell id="131" value="" style="group" parent="129" vertex="1" connectable="0">
                    <mxGeometry width="80" height="40" as="geometry"/>
                </mxCell>
                <mxCell id="132" value="? :" style="text;html=1;strokeColor=none;fillColor=none;align=center;verticalAlign=middle;whiteSpace=wrap;rounded=0;" parent="131" vertex="1">
                    <mxGeometry y="20" width="80" height="20" as="geometry"/>
                </mxCell>
                <mxCell id="133" value="TerCondition" style="text;html=1;strokeColor=none;fillColor=none;align=center;verticalAlign=middle;whiteSpace=wrap;rounded=0;" parent="131" vertex="1">
                    <mxGeometry width="80" height="20" as="geometry"/>
                </mxCell>
                <mxCell id="134" value="" style="group" parent="1" vertex="1" connectable="0">
                    <mxGeometry y="60" width="80" height="40" as="geometry"/>
                </mxCell>
                <mxCell id="135" value="" style="rounded=1;whiteSpace=wrap;html=1;" parent="134" vertex="1">
                    <mxGeometry width="80" height="40" as="geometry"/>
                </mxCell>
                <mxCell id="136" value="" style="group" parent="134" vertex="1" connectable="0">
                    <mxGeometry width="80" height="40" as="geometry"/>
                </mxCell>
                <mxCell id="137" value="✓" style="text;html=1;strokeColor=none;fillColor=none;align=center;verticalAlign=middle;whiteSpace=wrap;rounded=0;" parent="136" vertex="1">
                    <mxGeometry y="20" width="80" height="20" as="geometry"/>
                </mxCell>
                <mxCell id="138" value="ForceSuccess" style="text;html=1;strokeColor=none;fillColor=none;align=center;verticalAlign=middle;whiteSpace=wrap;rounded=0;" parent="136" vertex="1">
                    <mxGeometry width="80" height="20" as="geometry"/>
                </mxCell>
                <mxCell id="139" value="" style="group" parent="1" vertex="1" connectable="0">
                    <mxGeometry x="120" y="60" width="80" height="40" as="geometry"/>
                </mxCell>
                <mxCell id="140" value="" style="rounded=1;whiteSpace=wrap;html=1;" parent="139" vertex="1">
                    <mxGeometry width="80" height="40" as="geometry"/>
                </mxCell>
                <mxCell id="141" value="" style="group" parent="139" vertex="1" connectable="0">
                    <mxGeometry width="80" height="40" as="geometry"/>
                </mxCell>
                <mxCell id="142" value="✗" style="text;html=1;strokeColor=none;fillColor=none;align=center;verticalAlign=middle;whiteSpace=wrap;rounded=0;" parent="141" vertex="1">
                    <mxGeometry y="20" width="80" height="20" as="geometry"/>
                </mxCell>
                <mxCell id="143" value="ForceFailure" style="text;html=1;strokeColor=none;fillColor=none;align=center;verticalAlign=middle;whiteSpace=wrap;rounded=0;" parent="141" vertex="1">
                    <mxGeometry width="80" height="20" as="geometry"/>
                </mxCell>
                <mxCell id="144" value="" style="group" parent="1" vertex="1" connectable="0">
                    <mxGeometry x="120" width="80" height="40" as="geometry"/>
                </mxCell>
                <mxCell id="145" value="" style="rounded=1;whiteSpace=wrap;html=1;" parent="144" vertex="1">
                    <mxGeometry width="80" height="40" as="geometry"/>
                </mxCell>
                <mxCell id="146" value="" style="group" parent="144" vertex="1" connectable="0">
                    <mxGeometry width="80" height="40" as="geometry"/>
                </mxCell>
                <mxCell id="147" value="?" style="text;html=1;strokeColor=none;fillColor=none;align=center;verticalAlign=middle;whiteSpace=wrap;rounded=0;" parent="146" vertex="1">
                    <mxGeometry y="20" width="80" height="20" as="geometry"/>
                </mxCell>
                <mxCell id="148" value="Selector" style="text;html=1;strokeColor=none;fillColor=none;align=center;verticalAlign=middle;whiteSpace=wrap;rounded=0;" parent="146" vertex="1">
                    <mxGeometry width="80" height="20" as="geometry"/>
                </mxCell>
                <mxCell id="149" value="" style="group" parent="1" vertex="1" connectable="0">
                    <mxGeometry x="240" y="60" width="80" height="40" as="geometry"/>
                </mxCell>
                <mxCell id="150" value="" style="rounded=1;whiteSpace=wrap;html=1;" parent="149" vertex="1">
                    <mxGeometry width="80" height="40" as="geometry"/>
                </mxCell>
                <mxCell id="151" value="" style="group" parent="149" vertex="1" connectable="0">
                    <mxGeometry width="80" height="40" as="geometry"/>
                </mxCell>
                <mxCell id="152" value="T" style="text;html=1;strokeColor=none;fillColor=none;align=center;verticalAlign=middle;whiteSpace=wrap;rounded=0;" parent="151" vertex="1">
                    <mxGeometry y="20" width="80" height="20" as="geometry"/>
                </mxCell>
                <mxCell id="153" value="Timer" style="text;html=1;strokeColor=none;fillColor=none;align=center;verticalAlign=middle;whiteSpace=wrap;rounded=0;" parent="151" vertex="1">
                    <mxGeometry width="80" height="20" as="geometry"/>
                </mxCell>
                <mxCell id="154" value="" style="group" parent="1" vertex="1" connectable="0">
                    <mxGeometry x="360" y="60" width="80" height="40" as="geometry"/>
                </mxCell>
                <mxCell id="155" value="" style="rounded=1;whiteSpace=wrap;html=1;" parent="154" vertex="1">
                    <mxGeometry width="80" height="40" as="geometry"/>
                </mxCell>
                <mxCell id="156" value="" style="group" parent="154" vertex="1" connectable="0">
                    <mxGeometry width="80" height="40" as="geometry"/>
                </mxCell>
                <mxCell id="157" value="!" style="text;html=1;strokeColor=none;fillColor=none;align=center;verticalAlign=middle;whiteSpace=wrap;rounded=0;" parent="156" vertex="1">
                    <mxGeometry y="20" width="80" height="20" as="geometry"/>
                </mxCell>
                <mxCell id="158" value="Inverter" style="text;html=1;strokeColor=none;fillColor=none;align=center;verticalAlign=middle;whiteSpace=wrap;rounded=0;" parent="156" vertex="1">
                    <mxGeometry width="80" height="20" as="geometry"/>
                </mxCell>
                <mxCell id="622" value="" style="group" parent="1" vertex="1" connectable="0">
                    <mxGeometry x="1326" y="70" width="80" height="40" as="geometry"/>
                </mxCell>
                <mxCell id="623" value="" style="rounded=1;whiteSpace=wrap;html=1;" parent="622" vertex="1">
                    <mxGeometry width="80" height="40" as="geometry"/>
                </mxCell>
                <mxCell id="624" value="" style="group" parent="622" vertex="1" connectable="0">
                    <mxGeometry width="80" height="40" as="geometry"/>
                </mxCell>
                <mxCell id="625" style="edgeStyle=none;html=1;exitX=0.25;exitY=0;exitDx=0;exitDy=0;entryX=0.25;entryY=1;entryDx=0;entryDy=0;" parent="624" source="626" target="627" edge="1">
                    <mxGeometry relative="1" as="geometry"/>
                </mxCell>
                <mxCell id="626" value="→" style="text;html=1;strokeColor=none;fillColor=none;align=center;verticalAlign=middle;whiteSpace=wrap;rounded=0;" parent="624" vertex="1">
                    <mxGeometry y="20" width="80" height="20" as="geometry"/>
                </mxCell>
                <mxCell id="627" value="Sequence" style="text;html=1;strokeColor=none;fillColor=none;align=center;verticalAlign=middle;whiteSpace=wrap;rounded=0;" parent="624" vertex="1">
                    <mxGeometry width="80" height="20" as="geometry"/>
                </mxCell>
                <mxCell id="628" style="edgeStyle=none;html=1;entryX=0.5;entryY=0;entryDx=0;entryDy=0;" parent="1" source="626" target="652" edge="1">
                    <mxGeometry relative="1" as="geometry">
                        <mxPoint x="1276" y="100" as="targetPoint"/>
                    </mxGeometry>
                </mxCell>
                <mxCell id="629" value="" style="group" parent="1" vertex="1" connectable="0">
                    <mxGeometry x="1240" y="211" width="80" height="40" as="geometry"/>
                </mxCell>
                <mxCell id="630" value="" style="rounded=1;whiteSpace=wrap;html=1;" parent="629" vertex="1">
                    <mxGeometry width="80" height="40" as="geometry"/>
                </mxCell>
                <mxCell id="631" value="" style="group" parent="629" vertex="1" connectable="0">
                    <mxGeometry width="80" height="40" as="geometry"/>
                </mxCell>
                <mxCell id="632" value="→" style="text;html=1;strokeColor=none;fillColor=none;align=center;verticalAlign=middle;whiteSpace=wrap;rounded=0;" parent="631" vertex="1">
                    <mxGeometry y="20" width="80" height="20" as="geometry"/>
                </mxCell>
                <mxCell id="633" value="Sequence" style="text;html=1;strokeColor=none;fillColor=none;align=center;verticalAlign=middle;whiteSpace=wrap;rounded=0;" parent="631" vertex="1">
                    <mxGeometry width="80" height="20" as="geometry"/>
                </mxCell>
                <mxCell id="634" style="edgeStyle=none;html=1;entryX=0.5;entryY=0;entryDx=0;entryDy=0;" parent="1" source="632" target="666" edge="1">
                    <mxGeometry relative="1" as="geometry">
                        <mxPoint x="1220" y="271" as="targetPoint"/>
                    </mxGeometry>
                </mxCell>
                <mxCell id="635" style="edgeStyle=none;html=1;entryX=0.5;entryY=0;entryDx=0;entryDy=0;" parent="1" source="632" target="663" edge="1">
                    <mxGeometry relative="1" as="geometry">
                        <mxPoint x="1338" y="271" as="targetPoint"/>
                    </mxGeometry>
                </mxCell>
                <mxCell id="636" value="" style="group" parent="1" vertex="1" connectable="0">
                    <mxGeometry x="1390" y="130" width="80" height="40" as="geometry"/>
                </mxCell>
                <mxCell id="637" value="" style="rounded=1;whiteSpace=wrap;html=1;" parent="636" vertex="1">
                    <mxGeometry width="80" height="40" as="geometry"/>
                </mxCell>
                <mxCell id="638" value="" style="group" parent="636" vertex="1" connectable="0">
                    <mxGeometry width="80" height="40" as="geometry"/>
                </mxCell>
                <mxCell id="639" value="?" style="text;html=1;strokeColor=none;fillColor=none;align=center;verticalAlign=middle;whiteSpace=wrap;rounded=0;" parent="638" vertex="1">
                    <mxGeometry y="20" width="80" height="20" as="geometry"/>
                </mxCell>
                <mxCell id="640" value="Selector" style="text;html=1;strokeColor=none;fillColor=none;align=center;verticalAlign=middle;whiteSpace=wrap;rounded=0;" parent="638" vertex="1">
                    <mxGeometry width="80" height="20" as="geometry"/>
                </mxCell>
                <mxCell id="641" style="edgeStyle=none;html=1;entryX=0.5;entryY=0;entryDx=0;entryDy=0;" parent="1" source="639" target="633" edge="1">
                    <mxGeometry relative="1" as="geometry"/>
                </mxCell>
                <mxCell id="642" style="edgeStyle=none;html=1;entryX=0.5;entryY=0;entryDx=0;entryDy=0;" parent="1" source="639" target="708" edge="1">
                    <mxGeometry relative="1" as="geometry">
                        <mxPoint x="1460" y="250" as="targetPoint"/>
                    </mxGeometry>
                </mxCell>
                <mxCell id="643" style="edgeStyle=none;html=1;entryX=0.5;entryY=0;entryDx=0;entryDy=0;" parent="1" source="626" target="640" edge="1">
                    <mxGeometry relative="1" as="geometry"/>
                </mxCell>
                <mxCell id="644" value="" style="group" parent="1" vertex="1" connectable="0">
                    <mxGeometry x="1470" y="271" width="80" height="40" as="geometry"/>
                </mxCell>
                <mxCell id="645" value="" style="rounded=1;whiteSpace=wrap;html=1;" parent="644" vertex="1">
                    <mxGeometry width="80" height="40" as="geometry"/>
                </mxCell>
                <mxCell id="646" value="" style="group" parent="644" vertex="1" connectable="0">
                    <mxGeometry width="80" height="40" as="geometry"/>
                </mxCell>
                <mxCell id="647" value="→" style="text;html=1;strokeColor=none;fillColor=none;align=center;verticalAlign=middle;whiteSpace=wrap;rounded=0;" parent="646" vertex="1">
                    <mxGeometry y="20" width="80" height="20" as="geometry"/>
                </mxCell>
                <mxCell id="648" value="Sequence" style="text;html=1;strokeColor=none;fillColor=none;align=center;verticalAlign=middle;whiteSpace=wrap;rounded=0;" parent="646" vertex="1">
                    <mxGeometry width="80" height="20" as="geometry"/>
                </mxCell>
                <mxCell id="649" style="edgeStyle=none;html=1;entryX=0.5;entryY=0;entryDx=0;entryDy=0;" parent="1" source="647" target="720" edge="1">
                    <mxGeometry relative="1" as="geometry">
                        <mxPoint x="1448" y="331" as="targetPoint"/>
                    </mxGeometry>
                </mxCell>
                <mxCell id="650" style="edgeStyle=none;html=1;entryX=0.5;entryY=0;entryDx=0;entryDy=0;" parent="1" source="647" target="675" edge="1">
                    <mxGeometry relative="1" as="geometry">
                        <mxPoint x="1575" y="331" as="targetPoint"/>
                    </mxGeometry>
                </mxCell>
                <mxCell id="651" value="" style="group" parent="1" vertex="1" connectable="0">
                    <mxGeometry x="1260" y="130" width="112" height="49" as="geometry"/>
                </mxCell>
                <mxCell id="652" value="&lt;font style=&quot;font-size: 10px&quot;&gt;HasTar&lt;br&gt;Check&lt;/font&gt;" style="rounded=1;whiteSpace=wrap;html=1;align=left;verticalAlign=middle;" parent="651" vertex="1">
                    <mxGeometry width="80" height="40" as="geometry"/>
                </mxCell>
                <mxCell id="653" value="" style="shape=step;perimeter=stepPerimeter;whiteSpace=wrap;html=1;fixedSize=1;fontSize=10;fillColor=default;size=9.999971088610266;rotation=-180;" parent="651" vertex="1">
                    <mxGeometry x="32" y="24" width="80" height="25" as="geometry"/>
                </mxCell>
                <mxCell id="654" value="Unit.Tar" style="text;html=1;strokeColor=none;fillColor=none;align=center;verticalAlign=middle;whiteSpace=wrap;rounded=0;fontSize=10;" parent="651" vertex="1">
                    <mxGeometry x="32" y="24" width="80" height="25" as="geometry"/>
                </mxCell>
                <mxCell id="655" value="" style="group" parent="1" vertex="1" connectable="0">
                    <mxGeometry x="1240" y="331" width="112" height="49" as="geometry"/>
                </mxCell>
                <mxCell id="656" value="&lt;span style=&quot;font-size: 10px&quot;&gt;Attack&lt;/span&gt;&lt;br style=&quot;font-size: 10px&quot;&gt;&lt;span style=&quot;font-size: 10px&quot;&gt;Task&lt;/span&gt;" style="rounded=1;whiteSpace=wrap;html=1;align=left;verticalAlign=middle;" parent="655" vertex="1">
                    <mxGeometry width="80" height="40" as="geometry"/>
                </mxCell>
                <mxCell id="657" value="" style="shape=step;perimeter=stepPerimeter;whiteSpace=wrap;html=1;fixedSize=1;fontSize=10;fillColor=default;size=9.999971088610266;rotation=-180;" parent="655" vertex="1">
                    <mxGeometry x="32" y="24" width="80" height="25" as="geometry"/>
                </mxCell>
                <mxCell id="658" value="Unit.Tar" style="text;html=1;strokeColor=none;fillColor=none;align=center;verticalAlign=middle;whiteSpace=wrap;rounded=0;fontSize=10;" parent="655" vertex="1">
                    <mxGeometry x="32" y="24" width="80" height="25" as="geometry"/>
                </mxCell>
                <mxCell id="659" value="" style="group" parent="1" vertex="1" connectable="0">
                    <mxGeometry x="1300" y="271" width="80" height="40" as="geometry"/>
                </mxCell>
                <mxCell id="660" value="" style="rounded=1;whiteSpace=wrap;html=1;" parent="659" vertex="1">
                    <mxGeometry width="80" height="40" as="geometry"/>
                </mxCell>
                <mxCell id="661" value="" style="group" parent="659" vertex="1" connectable="0">
                    <mxGeometry width="80" height="40" as="geometry"/>
                </mxCell>
                <mxCell id="662" value="T" style="text;html=1;strokeColor=none;fillColor=none;align=center;verticalAlign=middle;whiteSpace=wrap;rounded=0;" parent="661" vertex="1">
                    <mxGeometry y="20" width="80" height="20" as="geometry"/>
                </mxCell>
                <mxCell id="663" value="Timer" style="text;html=1;strokeColor=none;fillColor=none;align=center;verticalAlign=middle;whiteSpace=wrap;rounded=0;" parent="661" vertex="1">
                    <mxGeometry width="80" height="20" as="geometry"/>
                </mxCell>
                <mxCell id="664" style="edgeStyle=none;html=1;entryX=0.5;entryY=0;entryDx=0;entryDy=0;fontSize=10;" parent="1" source="662" target="656" edge="1">
                    <mxGeometry relative="1" as="geometry"/>
                </mxCell>
                <mxCell id="665" value="" style="group" parent="1" vertex="1" connectable="0">
                    <mxGeometry x="1180" y="271" width="112" height="49" as="geometry"/>
                </mxCell>
                <mxCell id="666" value="&lt;font style=&quot;font-size: 9px&quot;&gt;TarInAttackRange&lt;/font&gt;&lt;br style=&quot;font-size: 10px&quot;&gt;&lt;span style=&quot;font-size: 10px&quot;&gt;Check&lt;/span&gt;" style="rounded=1;whiteSpace=wrap;html=1;align=left;verticalAlign=middle;" parent="665" vertex="1">
                    <mxGeometry width="80" height="40" as="geometry"/>
                </mxCell>
                <mxCell id="667" value="" style="shape=step;perimeter=stepPerimeter;whiteSpace=wrap;html=1;fixedSize=1;fontSize=10;fillColor=default;size=9.999971088610266;rotation=-180;" parent="665" vertex="1">
                    <mxGeometry x="32" y="24" width="80" height="25" as="geometry"/>
                </mxCell>
                <mxCell id="668" style="edgeStyle=none;html=1;exitX=0;exitY=0;exitDx=0;exitDy=0;entryX=0.397;entryY=0.597;entryDx=0;entryDy=0;entryPerimeter=0;" parent="665" source="669" target="666" edge="1">
                    <mxGeometry relative="1" as="geometry"/>
                </mxCell>
                <mxCell id="669" value="Unit.Tar" style="text;html=1;strokeColor=none;fillColor=none;align=center;verticalAlign=middle;whiteSpace=wrap;rounded=0;fontSize=10;" parent="665" vertex="1">
                    <mxGeometry x="32" y="24" width="80" height="25" as="geometry"/>
                </mxCell>
                <mxCell id="674" value="" style="group" parent="1" vertex="1" connectable="0">
                    <mxGeometry x="1530" y="331" width="112" height="49" as="geometry"/>
                </mxCell>
                <mxCell id="675" value="&lt;span style=&quot;font-size: 10px&quot;&gt;Follow&lt;/span&gt;&lt;br style=&quot;font-size: 10px&quot;&gt;&lt;span style=&quot;font-size: 10px&quot;&gt;Task&lt;/span&gt;" style="rounded=1;whiteSpace=wrap;html=1;align=left;verticalAlign=middle;" parent="674" vertex="1">
                    <mxGeometry width="80" height="40" as="geometry"/>
                </mxCell>
                <mxCell id="676" value="" style="shape=step;perimeter=stepPerimeter;whiteSpace=wrap;html=1;fixedSize=1;fontSize=10;fillColor=default;size=9.999971088610266;rotation=-180;" parent="674" vertex="1">
                    <mxGeometry x="32" y="24" width="80" height="25" as="geometry"/>
                </mxCell>
                <mxCell id="677" value="Unit.Tar" style="text;html=1;strokeColor=none;fillColor=none;align=center;verticalAlign=middle;whiteSpace=wrap;rounded=0;fontSize=10;" parent="674" vertex="1">
                    <mxGeometry x="32" y="24" width="80" height="25" as="geometry"/>
                </mxCell>
                <mxCell id="678" value="" style="group" parent="1" vertex="1" connectable="0">
                    <mxGeometry x="1480" y="70" width="112" height="49" as="geometry"/>
                </mxCell>
                <mxCell id="679" value="&lt;span style=&quot;font-size: 10px&quot;&gt;Moving&lt;/span&gt;&lt;br style=&quot;font-size: 10px&quot;&gt;&lt;span style=&quot;font-size: 10px&quot;&gt;Check&lt;/span&gt;" style="rounded=1;whiteSpace=wrap;html=1;align=left;verticalAlign=middle;" parent="678" vertex="1">
                    <mxGeometry width="80" height="40" as="geometry"/>
                </mxCell>
                <mxCell id="680" value="" style="shape=step;perimeter=stepPerimeter;whiteSpace=wrap;html=1;fixedSize=1;fontSize=10;fillColor=default;size=9.999971088610266;rotation=-180;" parent="678" vertex="1">
                    <mxGeometry x="32" y="24" width="80" height="25" as="geometry"/>
                </mxCell>
                <mxCell id="681" value="Unit" style="text;html=1;strokeColor=none;fillColor=none;align=center;verticalAlign=middle;whiteSpace=wrap;rounded=0;fontSize=10;" parent="678" vertex="1">
                    <mxGeometry x="32" y="24" width="80" height="25" as="geometry"/>
                </mxCell>
                <mxCell id="682" value="b" style="group" parent="1" vertex="1" connectable="0">
                    <mxGeometry x="1480" y="10" width="80" height="40" as="geometry"/>
                </mxCell>
                <mxCell id="683" value="" style="rounded=1;whiteSpace=wrap;html=1;" parent="682" vertex="1">
                    <mxGeometry width="80" height="40" as="geometry"/>
                </mxCell>
                <mxCell id="684" value="" style="group" parent="682" vertex="1" connectable="0">
                    <mxGeometry width="80" height="40" as="geometry"/>
                </mxCell>
                <mxCell id="685" value="?" style="text;html=1;strokeColor=none;fillColor=none;align=center;verticalAlign=middle;whiteSpace=wrap;rounded=0;" parent="684" vertex="1">
                    <mxGeometry y="20" width="80" height="20" as="geometry"/>
                </mxCell>
                <mxCell id="686" value="Selector" style="text;html=1;strokeColor=none;fillColor=none;align=center;verticalAlign=middle;whiteSpace=wrap;rounded=0;" parent="684" vertex="1">
                    <mxGeometry width="80" height="20" as="geometry"/>
                </mxCell>
                <mxCell id="687" style="edgeStyle=none;html=1;entryX=0.5;entryY=0;entryDx=0;entryDy=0;" parent="1" source="685" target="679" edge="1">
                    <mxGeometry relative="1" as="geometry"/>
                </mxCell>
                <mxCell id="688" style="edgeStyle=none;html=1;entryX=0.5;entryY=0;entryDx=0;entryDy=0;" parent="1" source="685" target="627" edge="1">
                    <mxGeometry relative="1" as="geometry"/>
                </mxCell>
                <mxCell id="689" value="" style="group" parent="1" vertex="1" connectable="0">
                    <mxGeometry x="1597" y="271" width="112" height="49" as="geometry"/>
                </mxCell>
                <mxCell id="690" value="&lt;span style=&quot;font-size: 10px&quot;&gt;RemoveTarget&lt;/span&gt;&lt;br style=&quot;font-size: 10px&quot;&gt;&lt;span style=&quot;font-size: 10px&quot;&gt;Task&lt;/span&gt;" style="rounded=1;whiteSpace=wrap;html=1;align=left;verticalAlign=middle;" parent="689" vertex="1">
                    <mxGeometry width="80" height="40" as="geometry"/>
                </mxCell>
                <mxCell id="691" value="" style="shape=step;perimeter=stepPerimeter;whiteSpace=wrap;html=1;fixedSize=1;fontSize=10;fillColor=default;size=9.999971088610266;rotation=-180;" parent="689" vertex="1">
                    <mxGeometry x="32" y="24" width="80" height="25" as="geometry"/>
                </mxCell>
                <mxCell id="692" style="edgeStyle=none;html=1;exitX=0;exitY=0;exitDx=0;exitDy=0;entryX=0.397;entryY=0.597;entryDx=0;entryDy=0;entryPerimeter=0;" parent="689" source="693" target="690" edge="1">
                    <mxGeometry relative="1" as="geometry"/>
                </mxCell>
                <mxCell id="693" value="Unit.Tar" style="text;html=1;strokeColor=none;fillColor=none;align=center;verticalAlign=middle;whiteSpace=wrap;rounded=0;fontSize=10;" parent="689" vertex="1">
                    <mxGeometry x="32" y="24" width="80" height="25" as="geometry"/>
                </mxCell>
                <mxCell id="704" value="" style="group" parent="1" vertex="1" connectable="0">
                    <mxGeometry x="1530" y="209" width="80" height="40" as="geometry"/>
                </mxCell>
                <mxCell id="705" value="" style="rounded=1;whiteSpace=wrap;html=1;" parent="704" vertex="1">
                    <mxGeometry width="80" height="40" as="geometry"/>
                </mxCell>
                <mxCell id="706" value="" style="group" parent="704" vertex="1" connectable="0">
                    <mxGeometry width="80" height="40" as="geometry"/>
                </mxCell>
                <mxCell id="707" value="?" style="text;html=1;strokeColor=none;fillColor=none;align=center;verticalAlign=middle;whiteSpace=wrap;rounded=0;" parent="706" vertex="1">
                    <mxGeometry y="20" width="80" height="20" as="geometry"/>
                </mxCell>
                <mxCell id="708" value="Selector" style="text;html=1;strokeColor=none;fillColor=none;align=center;verticalAlign=middle;whiteSpace=wrap;rounded=0;" parent="706" vertex="1">
                    <mxGeometry width="80" height="20" as="geometry"/>
                </mxCell>
                <mxCell id="709" style="edgeStyle=none;html=1;entryX=0.5;entryY=0;entryDx=0;entryDy=0;" parent="1" source="707" target="648" edge="1">
                    <mxGeometry relative="1" as="geometry"/>
                </mxCell>
                <mxCell id="710" style="edgeStyle=none;html=1;entryX=0.5;entryY=0;entryDx=0;entryDy=0;" parent="1" source="707" target="690" edge="1">
                    <mxGeometry relative="1" as="geometry">
                        <mxPoint x="1648" y="271" as="targetPoint"/>
                    </mxGeometry>
                </mxCell>
                <mxCell id="712" style="edgeStyle=none;html=1;entryX=0.5;entryY=0;entryDx=0;entryDy=0;" parent="1" edge="1">
                    <mxGeometry relative="1" as="geometry">
                        <mxPoint x="2389" y="891" as="targetPoint"/>
                    </mxGeometry>
                </mxCell>
                <mxCell id="717" style="edgeStyle=none;html=1;entryX=0.5;entryY=0;entryDx=0;entryDy=0;" parent="1" source="685" target="731" edge="1">
                    <mxGeometry relative="1" as="geometry">
                        <mxPoint x="1680" y="70" as="targetPoint"/>
                    </mxGeometry>
                </mxCell>
                <mxCell id="719" value="" style="group" parent="1" vertex="1" connectable="0">
                    <mxGeometry x="1406" y="331" width="112" height="49" as="geometry"/>
                </mxCell>
                <mxCell id="720" value="&lt;font style=&quot;font-size: 10px&quot;&gt;TarInFovRange&lt;/font&gt;&lt;br&gt;&lt;font style=&quot;font-size: 10px&quot;&gt;Check&lt;/font&gt;" style="rounded=1;whiteSpace=wrap;html=1;align=left;verticalAlign=middle;" parent="719" vertex="1">
                    <mxGeometry width="80" height="40" as="geometry"/>
                </mxCell>
                <mxCell id="721" value="" style="shape=step;perimeter=stepPerimeter;whiteSpace=wrap;html=1;fixedSize=1;fontSize=10;fillColor=default;size=9.999971088610266;rotation=-180;" parent="719" vertex="1">
                    <mxGeometry x="32" y="24" width="80" height="25" as="geometry"/>
                </mxCell>
                <mxCell id="722" value="Unit.Tar" style="text;html=1;strokeColor=none;fillColor=none;align=center;verticalAlign=middle;whiteSpace=wrap;rounded=0;fontSize=10;" parent="719" vertex="1">
                    <mxGeometry x="32" y="24" width="80" height="25" as="geometry"/>
                </mxCell>
                <mxCell id="723" value="" style="group" parent="1" vertex="1" connectable="0">
                    <mxGeometry x="1580" y="130" width="112" height="49" as="geometry"/>
                </mxCell>
                <mxCell id="724" value="&lt;font&gt;&lt;font style=&quot;font-size: 10px&quot;&gt;AnyTarInFov&lt;/font&gt;&lt;br&gt;&lt;span style=&quot;font-size: 10px&quot;&gt;Check&lt;/span&gt;&lt;br&gt;&lt;/font&gt;" style="rounded=1;whiteSpace=wrap;html=1;align=left;verticalAlign=middle;" parent="723" vertex="1">
                    <mxGeometry width="80" height="40" as="geometry"/>
                </mxCell>
                <mxCell id="725" value="" style="shape=step;perimeter=stepPerimeter;whiteSpace=wrap;html=1;fixedSize=1;fontSize=10;fillColor=default;size=9.999971088610266;" parent="723" vertex="1">
                    <mxGeometry x="32" y="24" width="80" height="25" as="geometry"/>
                </mxCell>
                <mxCell id="726" value="Target" style="text;html=1;strokeColor=none;fillColor=none;align=center;verticalAlign=middle;whiteSpace=wrap;rounded=0;fontSize=10;" parent="723" vertex="1">
                    <mxGeometry x="32" y="24" width="80" height="25" as="geometry"/>
                </mxCell>
                <mxCell id="727" value="" style="group" parent="1" vertex="1" connectable="0">
                    <mxGeometry x="1640" y="70" width="80" height="40" as="geometry"/>
                </mxCell>
                <mxCell id="728" value="" style="rounded=1;whiteSpace=wrap;html=1;" parent="727" vertex="1">
                    <mxGeometry width="80" height="40" as="geometry"/>
                </mxCell>
                <mxCell id="729" value="" style="group" parent="727" vertex="1" connectable="0">
                    <mxGeometry width="80" height="40" as="geometry"/>
                </mxCell>
                <mxCell id="730" value="→" style="text;html=1;strokeColor=none;fillColor=none;align=center;verticalAlign=middle;whiteSpace=wrap;rounded=0;" parent="729" vertex="1">
                    <mxGeometry y="20" width="80" height="20" as="geometry"/>
                </mxCell>
                <mxCell id="731" value="Sequence" style="text;html=1;strokeColor=none;fillColor=none;align=center;verticalAlign=middle;whiteSpace=wrap;rounded=0;" parent="729" vertex="1">
                    <mxGeometry width="80" height="20" as="geometry"/>
                </mxCell>
                <mxCell id="732" style="edgeStyle=none;html=1;entryX=0.5;entryY=0;entryDx=0;entryDy=0;fontSize=8;" parent="1" source="730" target="724" edge="1">
                    <mxGeometry relative="1" as="geometry"/>
                </mxCell>
                <mxCell id="737" style="edgeStyle=none;html=1;entryX=0.5;entryY=0;entryDx=0;entryDy=0;fontSize=10;" parent="1" source="730" target="739" edge="1">
                    <mxGeometry relative="1" as="geometry">
                        <mxPoint x="1740" y="129.9999999999999" as="targetPoint"/>
                    </mxGeometry>
                </mxCell>
                <mxCell id="738" value="" style="group" parent="1" vertex="1" connectable="0">
                    <mxGeometry x="1698" y="130" width="112" height="49" as="geometry"/>
                </mxCell>
                <mxCell id="739" value="&lt;font style=&quot;font-size: 10px&quot;&gt;SetTarget&lt;/font&gt;&lt;br&gt;&lt;span style=&quot;font-size: 10px&quot;&gt;Task&lt;/span&gt;" style="rounded=1;whiteSpace=wrap;html=1;align=left;verticalAlign=middle;" parent="738" vertex="1">
                    <mxGeometry width="80" height="40" as="geometry"/>
                </mxCell>
                <mxCell id="740" value="" style="shape=step;perimeter=stepPerimeter;whiteSpace=wrap;html=1;fixedSize=1;fontSize=10;fillColor=default;size=9.999971088610266;rotation=-180;" parent="738" vertex="1">
                    <mxGeometry x="32" y="24" width="80" height="25" as="geometry"/>
                </mxCell>
                <mxCell id="741" style="edgeStyle=none;html=1;exitX=0;exitY=0;exitDx=0;exitDy=0;entryX=0.397;entryY=0.597;entryDx=0;entryDy=0;entryPerimeter=0;" parent="738" source="742" target="739" edge="1">
                    <mxGeometry relative="1" as="geometry"/>
                </mxCell>
                <mxCell id="742" value="Target" style="text;html=1;strokeColor=none;fillColor=none;align=center;verticalAlign=middle;whiteSpace=wrap;rounded=0;fontSize=10;" parent="738" vertex="1">
                    <mxGeometry x="32" y="24" width="80" height="25" as="geometry"/>
                </mxCell>
                <mxCell id="743" value="" style="group" vertex="1" connectable="0" parent="1">
                    <mxGeometry x="1300" y="900" width="112" height="49" as="geometry"/>
                </mxCell>
                <mxCell id="744" value="&lt;span style=&quot;font-size: 10px&quot;&gt;TrySetTarOrDest&lt;br&gt;&lt;/span&gt;Task" style="rounded=1;whiteSpace=wrap;html=1;align=left;verticalAlign=middle;" vertex="1" parent="743">
                    <mxGeometry width="80" height="40" as="geometry"/>
                </mxCell>
                <mxCell id="745" value="" style="shape=step;perimeter=stepPerimeter;whiteSpace=wrap;html=1;fixedSize=1;fontSize=10;fillColor=default;size=9.999971088610266;" vertex="1" parent="743">
                    <mxGeometry x="32" y="24" width="80" height="25" as="geometry"/>
                </mxCell>
                <mxCell id="746" value="Tar&lt;br&gt;Dest" style="text;html=1;strokeColor=none;fillColor=none;align=center;verticalAlign=middle;whiteSpace=wrap;rounded=0;fontSize=10;" vertex="1" parent="743">
                    <mxGeometry x="32" y="24" width="80" height="25" as="geometry"/>
                </mxCell>
                <mxCell id="747" value="" style="group" vertex="1" connectable="0" parent="1">
                    <mxGeometry x="1240" y="840" width="80" height="40" as="geometry"/>
                </mxCell>
                <mxCell id="748" value="" style="rounded=1;whiteSpace=wrap;html=1;" vertex="1" parent="747">
                    <mxGeometry width="80" height="40" as="geometry"/>
                </mxCell>
                <mxCell id="749" value="" style="group" vertex="1" connectable="0" parent="747">
                    <mxGeometry width="80" height="40" as="geometry"/>
                </mxCell>
                <mxCell id="750" value="→" style="text;html=1;strokeColor=none;fillColor=none;align=center;verticalAlign=middle;whiteSpace=wrap;rounded=0;" vertex="1" parent="749">
                    <mxGeometry y="20" width="80" height="20" as="geometry"/>
                </mxCell>
                <mxCell id="751" value="Sequence" style="text;html=1;strokeColor=none;fillColor=none;align=center;verticalAlign=middle;whiteSpace=wrap;rounded=0;" vertex="1" parent="749">
                    <mxGeometry width="80" height="20" as="geometry"/>
                </mxCell>
                <mxCell id="752" value="" style="group" vertex="1" connectable="0" parent="1">
                    <mxGeometry x="1180" y="900" width="112" height="49" as="geometry"/>
                </mxCell>
                <mxCell id="753" value="&lt;font style=&quot;font-size: 8px&quot;&gt;CollectivityIsSelect&lt;/font&gt;&lt;br&gt;&lt;span style=&quot;font-size: 10px&quot;&gt;Check&lt;/span&gt;" style="rounded=1;whiteSpace=wrap;html=1;align=left;verticalAlign=middle;" vertex="1" parent="752">
                    <mxGeometry width="80" height="40" as="geometry"/>
                </mxCell>
                <mxCell id="756" style="edgeStyle=none;html=1;entryX=0.5;entryY=0;entryDx=0;entryDy=0;" edge="1" parent="1" source="750" target="753">
                    <mxGeometry relative="1" as="geometry"/>
                </mxCell>
                <mxCell id="757" style="edgeStyle=none;html=1;entryX=0.5;entryY=0;entryDx=0;entryDy=0;" edge="1" parent="1" source="750" target="744">
                    <mxGeometry relative="1" as="geometry"/>
                </mxCell>
            </root>
        </mxGraphModel>
    </diagram>
</mxfile>